<svg width="225" height="157" viewBox="0 0 225 157" fill="none" xmlns="http://www.w3.org/2000/svg">
<path opacity="0.15" d="M225 154.7C225 155.6 174.6 156.4 112.5 156.4C50.4 156.4 0 155.6 0 154.7C0 153.8 50.4 153 112.5 153C174.6 153.1 225 153.8 225 154.7Z" fill="#0B1028"/>
<path d="M171.5 112.8L182.1 154.9H183.1L172.5 112.8H171.5Z" fill="#0B1028"/>
<path d="M184.1 112.8L194.8 154.9H195.7L185.1 112.8H184.1Z" fill="#0B1028"/>
<path d="M173.5 118.5L173.6 119.3H186.2L186 118.5H173.5Z" fill="#0B1028"/>
<path d="M175.3 125.5L175.4 126.4H187.9L187.8 125.5H175.3Z" fill="#0B1028"/>
<path d="M177.1 132.6L177.2 133.4H189.7L189.6 132.6H177.1Z" fill="#0B1028"/>
<path d="M178.9 139.6L179 140.5H191.5L191.4 139.6H178.9Z" fill="#0B1028"/>
<path d="M180.6 146.7L180.8 147.6H193.3L193.1 146.7H180.6Z" fill="#0B1028"/>
<path d="M151.1 154.9H152L162.7 112.8H161.7L151.1 154.9Z" fill="#192344"/>
<path d="M163.7 154.9H164.7L175.3 112.8H174.3L163.7 154.9Z" fill="#192344"/>
<path d="M153.4 148H165.9L166 147.2H153.5L153.4 148Z" fill="#192344"/>
<path d="M155.2 141H167.7L167.8 140.1H155.3L155.2 141Z" fill="#192344"/>
<path d="M157 133.9H169.5L169.6 133.1H157.1L157 133.9Z" fill="#192344"/>
<path d="M158.7 126.9H171.2L171.4 126H158.9L158.7 126.9Z" fill="#192344"/>
<path d="M160.5 119.8H173L173.1 118.9H160.6L160.5 119.8Z" fill="#192344"/>
<path d="M187.9 110.7H176.3V112.8H187.9V110.7Z" fill="#0B1028"/>
<path d="M176.3 110.7H157.9V112.8H176.3V110.7Z" fill="#192344"/>
<path d="M138.4 71.3C138.3 71.1 138.3 70.8 138.1 71C137.9 71.1 138 71.9 138.1 72C138.5 72.3 138.6 72.1 139 72.4C138.7 72 138.5 71.6 138.4 71.3Z" fill="#FF9873"/>
<path d="M151.7 78.6C151.6 78.5 151.5 78.4 151.4 78.3C149.4 77.1 141.1 74 139.1 72.5C138.7 73.2 138.4 73.8 138 74.2C141.2 76.7 150 82.1 151.3 81.2C152.5 80.2 152.2 79.2 151.7 78.6Z" fill="#FF3B79"/>
<path d="M136 72.3001C136.8 73.1001 137.8 73.9001 138.1 74.2001C138.4 73.9001 139.3 72.6001 139.3 72.6001C138.9 72.3001 138.6 71.9001 138.3 71.6001C137.9 71.2001 136.9 70.5001 136.8 70.4001C136.6 70.3001 136.1 69.9001 135.9 69.8001C135.7 69.7001 135.5 69.7001 135.3 69.9001C135.2 70.0001 135.2 70.2001 135.7 70.6001C136.3 71.0001 136.6 71.3001 136.6 71.3001C136.6 71.3001 136.2 71.4001 136.3 71.7001C136.3 71.7001 135.9 71.7001 136 72.1001C135.9 72.0001 135.7 72.1001 136 72.3001Z" fill="#FF9873"/>
<path d="M163.6 74.6998C161.4 74.8998 154.8 77.1998 151.4 77.6998C147.2 78.2998 149.2 80.9998 150.5 81.1998C154 81.7998 163.8 81.6998 164.3 79.8998C164.5 79.1998 164 74.5998 163.6 74.6998Z" fill="#FF3B79"/>
<path d="M164.1 74.4002C164 74.3002 163.8 74.2002 163.6 74.2002C162.5 74.3002 160.2 74.9002 157.9 75.6002C155.5 76.3002 150.8 77.3002 150.6 77.4002C149.7 77.0002 140.6 73.1002 139.5 72.2002L137.8 74.6002C140.6 76.8002 147.8 81.3002 150.5 81.7002C153.3 82.2002 164.2 82.5002 164.8 80.1002C165 79.2002 164.6 75.0002 164.1 74.4002Z" fill="#F47500"/>
<path d="M135.5 129.4C135.7 129 136 128.2 136 128.2L138.2 128.8C138.2 128.8 138.3 129.3 138.3 129.9C138.3 130.5 139.1 131.3 138.5 132C138.3 132.2 137.1 132.1 136.5 132.1C136 132.1 134.4 132.2 133.6 132.2C132.7 132.2 131.5 131.9 131.5 131.4C131.4 130.3 135.1 130.1 135.5 129.4Z" fill="#001A37"/>
<path d="M136 128.1L138.3 128.2C138.3 128.2 138.3 129.3 138.3 129.8C138.3 129.8 136.1 130.1 135.8 129.8C135.4 129.5 135.6 129.3 135.6 129.3C135.9 128.8 136 128.1 136 128.1Z" fill="#FF9873"/>
<path d="M150.2 106.8C144.2 119 138.5 129.7 138.5 129.7C137.4 129.5 136.2 129.2 135.7 128.5C135.7 128.5 138.9 117.4 143.2 102.5C144.8 96.4001 154.1 98.8001 150.2 106.8Z" fill="#00E18E"/>
<path d="M144.6 106.6C152.7 103 172.8 97.8001 176.3 98.3001C180.1 98.8001 180.5 107.8 173.9 109.8C166.4 112.2 155.4 114.5 146 113.1C142.5 112.6 141.2 108.2 144.6 106.6Z" fill="#00C675"/>
<path d="M151.6 138.3C151.6 137.8 151.6 137 151.6 137L153.8 136.6C153.8 136.6 154.1 137.1 154.3 137.6C154.6 138.2 155.6 138.5 155.4 139.4C155.3 139.7 154.2 140 153.6 140.3C153.1 140.5 151.7 141.2 151 141.6C150.2 142 148.9 142.2 148.7 141.8C148.2 140.8 151.5 139.1 151.6 138.3Z" fill="#001A37"/>
<path d="M151.4 136.9L153.5 136.1C153.5 136.1 154 137.1 154.2 137.5C154.2 137.5 152.3 138.6 151.9 138.6C151.4 138.5 151.5 138.2 151.5 138.2C151.6 137.6 151.4 136.9 151.4 136.9Z" fill="#FF9873"/>
<path d="M151.1 111.5C153 125 154.3 136.5 154.3 136.5C153.6 137.3 152.2 137.8 151.3 137.5C151.3 137.5 147.7 126.5 142.8 111.8C140.8 105.9 149.9 102.6 151.1 111.5Z" fill="#00C675"/>
<path d="M146.1 99.3001C154.7 97.2001 175.4 95.9001 178.8 96.9001C182.5 98.0001 181.7 111.4 173.9 111C166.1 110.6 155.5 108.3 146.5 105.2C143.2 104.1 142.4 100.2 146.1 99.3001Z" fill="#00E18E"/>
<path d="M142.6 96.2001C143 96.3001 143.5 96.4001 143.9 96.3001C143.4 96.4001 143.5 96.7001 143.1 96.9001C142.9 96.9001 142.1 96.5001 142.2 96.3001C142.1 96.0001 142.3 96.2001 142.6 96.2001Z" fill="#FF3B78"/>
<path d="M166.4 67.8999C166.4 68.8999 167 71.4999 167.4 71.9999C166.8 73.8999 163.9 74.1999 163.6 73.1999C163.9 71.9999 163.2 69.9999 163.1 69.7999C163.8 69.7999 166.2 68.0999 166.4 67.8999Z" fill="#FF9873"/>
<path d="M164.8 64.6998C166.2 65.0998 166.8 66.3998 166.5 67.7998L166.1 69.1998C165.8 70.1998 163.8 71.4998 163 70.9998C161 69.9998 161.5 65.9998 161.7 65.4998C162.2 64.3998 163.5 64.2998 164.8 64.6998Z" fill="#FF9873"/>
<path d="M160.2 80.1999C159.9 78.1999 159.7 75.5999 161.4 74.2999C161.8 73.9999 163.6 73.1999 163.6 73.1999C163.6 73.1999 164.3 73.8999 165 73.6999C166 73.4999 167.4 71.8999 167.4 71.8999C167.4 71.8999 169.7 72.0999 170.5 72.2999C177.2 74.0999 181.6 87.1999 181.6 106.4C181.3 106.5 180.4 106.1 179.6 105.4L178.6 98.6999L178 102.3C172.6 99.9999 164.8 101.9 160 97.1999C160.6 87.0999 160.3 81.3999 160.2 80.1999Z" fill="#FF8D00"/>
<path d="M165 73.8C166 73.6 167.4 72 167.4 72C167.4 72 168.6 72.1 169 72.1C169.8 72.2 170.5 72.4 170.5 72.4C167.8 74.2 163.9 78.6 163.9 78.6C163.9 78.6 162.3 76.2 161.9 74.1C162.1 74 163.7 73.3 163.7 73.3C163.7 73.3 164.3 73.9 165 73.8Z" fill="white"/>
<path d="M161.9 63.6001C163.8 61.7 166.8 62.1001 167.9 64.0001C169.6 66.9001 167.1 68.4001 166.4 70.4001C166.4 70.4001 166.8 67.2001 166.3 65.9001C162.2 66.5001 160.6 65.4001 159.9 64.1001C159.8 64.2001 160.7 64.7001 161.9 63.6001Z" fill="#192344"/>
<path d="M166.8 67.3001C167.1 67.4001 167.3 68.0001 167.1 68.4001C167 68.7001 166.4 69.1001 166 69.0001C166 68.6001 166 67.8001 166.1 67.3001C166.4 67.2001 166.7 67.2001 166.8 67.3001Z" fill="#FF9873"/>
<path d="M168.3 98.3999C168.3 98.6999 168 98.9999 167.7 98.9999H153.2C152.9 98.9999 152.6 98.6999 152.6 98.3999H168.3Z" fill="#192344"/>
<path d="M151 85.6002L154 98.2002C154 98.4002 154 99.0002 153.3 99.0002L141 98.8002V84.7002H149.9C150.4 84.7002 150.9 85.1002 151 85.6002Z" fill="#192344"/>
<path d="M134.3 84.7002H150C150.2 84.7002 150.3 84.8002 150.3 85.0002L153.5 98.5002C153.6 98.7002 153.4 99.0002 153.2 99.0002H138.6C137.8 99.0002 137.1 98.5002 136.9 97.7002L133.9 85.2002C133.9 84.9002 134.1 84.7002 134.3 84.7002Z" fill="#4619D9"/>
<path opacity="0.18" d="M148.7 98.2H152.7L151.9 94.5L148.7 98.2Z" fill="white"/>
<path opacity="0.18" d="M150.6 88.8998L149.8 85.2998H148.7C144.9 89.5998 141.2 93.8998 137.4 98.1998H142.5L150.6 88.8998Z" fill="white"/>
<path d="M170 79.5001C170.3 78.0001 173.5 79.6001 173.5 79.6001C173.5 79.6001 173.2 83.1001 168.6 87.0001C165.6 89.6001 161.8 89.8001 161.8 89.8001C161.8 89.8001 169 84.2001 170 79.5001Z" fill="#F47500"/>
<path d="M149.4 89.0002C149.7 89.2002 150.1 89.3002 150.5 89.4002C150.1 89.4002 150.1 89.6002 149.7 89.7002C149.5 89.7002 149 89.1002 149 89.0002C149.1 88.7002 149.2 88.9002 149.4 89.0002Z" fill="#FF9873"/>
<path d="M146.7 90C146.9 89.9 147.5 89.8 147.7 89.8C147.8 89.8 148.9 89.6 149.5 89.5C149.9 89.5 150.4 89.5 150.8 89.5C150.8 89.5 151.2 90.9 151.3 91.3C150.6 91.4 148.3 91.4 148.2 91.4C147.3 91.6 147 91.3 147.2 91.1C147.2 91 146.6 91 146.7 90.7C146.7 90.7 146.5 90.6 146.5 90.4C146.4 90.3 146.6 90 146.7 90Z" fill="#FF9873"/>
<path d="M161.8 85.7001C161.9 85.5001 162.1 85.3001 162.3 85.1001C163.3 83.9001 164.6 81.8001 165.9 79.9001C167.2 77.9001 168.3 76.1001 169.1 75.3001C169.2 75.2001 169.4 75.1001 169.6 75.1001C170.4 75.2001 173.3 78.0001 173.7 78.7001C174.8 80.8001 166.9 87.4001 164.6 88.9001C162.4 90.3001 154.5 91.7001 151.1 91.9001L150.8 89.1001C152.2 89.0001 155.7 87.9001 158.5 86.9001C159.6 86.3001 160.8 85.9001 161.8 85.7001Z" fill="#FF8D00"/>
<path d="M31.1684 101.736H28.6312H28.5372C28.5372 101.736 28.3493 101.56 27.9734 101.208C27.7855 101.033 27.5975 100.857 27.4096 100.681L27.2216 100.505L46.7674 91.0963C46.7674 90.9205 46.7674 90.7446 46.7674 90.4808C46.7674 89.9532 46.8614 89.5136 47.0493 89.0739V86.2601H51.6538L66.3132 69.7291L68.0985 70.1688L68.8503 69.3774V68.9377C68.6624 68.4981 68.5683 67.9705 68.5683 67.5308C68.5683 67.0032 68.6624 66.5636 68.8503 66.1239V63.3101H73.5488C75.8041 63.486 77.5895 65.3326 77.5895 67.5308C77.5895 68.0584 77.4956 68.586 77.3076 69.1136L88.1142 78.1705H91.7789C91.8729 78.1705 92.0609 78.1705 92.1549 78.1705H92.2487H92.4368C92.7187 78.1705 92.9065 78.2584 93.1884 78.2584L106.72 62.0791H108.693V61.1119C108.506 60.6722 108.412 60.1446 108.412 59.705C108.412 59.1774 108.506 58.7377 108.693 58.2981V55.4843H112.922C113.486 55.4843 114.05 55.5722 114.614 55.7481C115.177 55.9239 115.647 56.2757 116.023 56.6274L129.649 51.8791V51.7912C129.649 50.3843 130.4 49.0653 131.716 48.2739L131.81 48.0981L143.932 22.9498H144.966V22.0705H148.631C151.074 22.0705 153.047 23.917 153.141 26.1153L164.793 33.5895C164.887 33.5015 164.981 33.5015 165.075 33.4136C165.451 33.2377 165.921 33.0619 166.391 32.9739C166.673 32.9739 166.861 32.886 167.143 32.886C167.8 32.886 168.364 32.9739 168.928 33.2377L187.722 17.0584L189.038 17.6739L190.729 16.355L181.144 6.15497L207.738 1.23083L208.02 0.439453H212.436L212.342 0.703245L202.193 28.5774H197.777L198.999 25.3239L192.609 18.5532L190.447 20.3119L171.371 35.9636C171.559 36.4032 171.559 36.8429 171.559 37.2826C171.559 39.5688 169.586 41.5032 167.049 41.5032H162.82L163.008 41.2395L163.666 40.0963C163.384 39.7446 163.102 39.3929 162.914 39.0412C162.82 38.8653 162.726 38.6894 162.726 38.5136C162.632 38.1619 162.538 37.7222 162.538 37.2826C162.538 36.8429 162.632 36.4032 162.726 35.9636L151.92 29.017C151.074 29.9843 149.758 30.5998 148.443 30.5998H147.127L137.26 48.9774C138.106 49.7688 138.482 50.8239 138.482 51.8791C138.482 53.0222 138.012 54.0774 137.166 54.8688C136.321 55.6601 135.193 56.0998 133.971 56.0998H129.743L129.837 54.8688L117.245 59.2653C117.245 59.4412 117.245 59.617 117.245 59.7929C117.245 62.0791 115.271 64.0136 112.734 64.0136H111.137L96.1016 80.8963C96.2894 81.4239 96.3835 81.8636 96.3835 82.3912C96.3835 84.5894 94.5981 86.3481 92.3428 86.6119H92.1549H87.6443V83.7981C87.4564 83.3584 87.3623 82.8308 87.3623 82.3912C87.3623 82.1274 87.3624 81.7757 87.4564 81.5119L85.9528 80.1929L85.2951 80.5446L85.201 80.4567C85.201 80.4567 84.9192 80.1929 84.4493 79.8412C79.6569 75.8843 76.2739 73.0705 74.3945 71.4877C74.1126 71.5757 73.7367 71.6636 73.4548 71.6636H73.173C72.985 71.6636 72.891 71.6636 72.7031 71.6636H70.4477L55.0368 88.3705C55.4127 88.986 55.6005 89.6895 55.6005 90.4808C55.6005 92.6791 53.8152 94.4377 51.5599 94.7015H51.3719H46.8614V94.086L31.1684 101.736ZM28.8191 101.384H31.1684L47.4251 93.5584V94.3498H51.4659H51.5599C53.7212 94.2619 55.4126 92.5032 55.4126 90.4808C55.4126 89.7774 55.2247 89.0739 54.8488 88.4584L54.7549 88.3705L70.4477 71.3998H72.891C73.079 71.3998 73.173 71.3998 73.2668 71.3998H73.3609C73.7368 71.3998 74.1127 71.3119 74.4885 71.2239H74.5825L74.6764 71.3119C75.9921 72.367 78.7172 74.7412 84.8252 79.7532C85.1071 80.017 85.389 80.1929 85.4829 80.2808L86.1407 79.9291L88.0201 81.5119L87.9262 81.6877C87.8323 81.9515 87.8322 82.2153 87.8322 82.4791C87.8322 82.9188 87.9262 83.3584 88.1142 83.7981V86.2601H92.1549H92.2487C94.41 86.1722 96.1016 84.4136 96.1016 82.3912C96.1016 81.8636 96.0075 81.336 95.8196 80.8963V80.8084L111.231 63.6619H113.016C115.271 63.6619 117.151 61.9032 117.151 59.7929C117.151 59.617 117.151 59.3532 117.057 59.1774V59.0015L130.494 54.2532L130.4 55.6601H134.253C135.381 55.6601 136.415 55.2205 137.166 54.517C137.918 53.8136 138.388 52.8463 138.388 51.7912C138.388 50.736 137.918 49.7688 137.166 49.0653L137.072 48.9774L137.166 48.8895L147.127 30.2481H148.725C150.04 30.2481 151.262 29.6326 152.014 28.6653L152.108 28.4895L163.384 35.6998L163.29 35.7877C163.102 36.2274 163.008 36.667 163.008 37.1067C163.008 37.4584 163.102 37.8101 163.196 38.2498C163.29 38.4257 163.29 38.6015 163.384 38.6895C163.572 39.0412 163.854 39.3929 164.136 39.7446L164.23 39.8326L163.572 40.9757H167.143C169.398 40.9757 171.277 39.217 171.277 37.1067C171.277 36.667 171.183 36.2274 171.089 35.7877V35.6998L174.284 33.0619L190.353 19.8722L192.796 17.8498L199.562 25.0601L198.435 28.0498H202.099L212.06 0.615316H208.395L208.114 1.40669L181.896 6.2429L191.293 16.267L189.226 18.0257L187.91 17.4101L169.116 33.5895L169.022 33.5015C168.458 33.2377 167.894 33.1498 167.237 33.1498C166.955 33.1498 166.767 33.1498 166.485 33.2377C166.015 33.3257 165.639 33.4136 165.263 33.5895C165.169 33.6774 164.981 33.7653 164.887 33.7653L164.793 33.8532L152.577 26.3791V26.2912C152.577 24.1808 150.698 22.5101 148.443 22.5101H145.154V23.3895H144.026L131.904 48.6257H131.81C130.588 49.3291 129.931 50.5601 129.931 51.8791C129.931 51.967 129.931 51.967 129.931 52.055V52.1429L115.835 57.067L115.741 56.9791C115.365 56.6274 114.895 56.2757 114.332 56.0998C113.862 55.9239 113.298 55.836 112.828 55.836H108.975V58.2981C108.788 58.7377 108.693 59.1774 108.693 59.617C108.693 60.0567 108.788 60.4963 108.975 60.936V62.3429H106.814L106.344 62.9584L93.1884 78.6101H93.0946C92.8127 78.5222 92.4368 78.4343 92.1549 78.4343H92.0608C91.9669 78.4343 91.779 78.4343 91.685 78.4343H87.9262L87.8322 78.3463L76.7437 69.0257L76.8378 68.9377C77.0257 68.4101 77.2136 67.9705 77.2136 67.4429C77.2136 65.4205 75.5222 63.7498 73.3609 63.5739H73.173H69.2261V66.036C69.0382 66.4757 68.9443 66.9153 68.9443 67.355C68.9443 67.7946 69.0382 68.2343 69.2261 68.6739V69.2895L68.1926 70.3446L66.407 69.905L66.1252 70.2567L51.8417 86.436H51.6538H51.5599H51.4659H47.4251V88.8981C47.2372 89.3377 47.1432 89.7774 47.1432 90.217C47.1432 90.3929 47.1433 90.6567 47.2373 90.8326V90.9205L27.8794 100.241C27.9734 100.329 28.1613 100.505 28.2553 100.593C28.5372 101.208 28.7252 101.296 28.8191 101.384Z" fill="#C5B2FE"/>
<path d="M133.971 56.1H129.743L129.837 54.869L129.179 55.1328L129.085 53.4621L132.844 48.8896H137.448L137.26 49.0655C138.012 49.8569 138.482 50.8241 138.482 51.9672C138.482 53.1103 138.012 54.1655 137.166 54.9569C136.321 55.6603 135.193 56.1 133.971 56.1ZM130.119 55.7483H133.971C135.099 55.7483 136.133 55.3086 136.884 54.6052C137.636 53.9017 138.106 52.9345 138.106 51.8793C138.106 50.8241 137.73 49.8569 136.884 49.1534H133.032L129.461 53.55L129.555 54.6052L130.307 54.3414L130.119 55.7483Z" fill="#C5B2FE"/>
<path d="M191.857 15.4759L190.729 16.4432L188.85 18.0259L188.474 18.3777L171.935 31.919L166.955 35.9639L163.384 38.8656L163.29 38.6897L162.82 38.4259L158.873 35.8759L147.879 28.8415L144.872 26.907L133.032 49.0656L130.964 52.9346L129.461 53.4622L126.642 54.4294L113.11 59.1777L110.573 60.057L108.882 61.9035L108.506 62.3432L107.378 63.5742L91.873 80.8087L88.0201 85.1173L87.9262 85.0294L83.6976 81.5121L71.9513 71.5759L71.2936 71.0484L69.0382 69.2018L68.8503 69.0259L67.6286 70.3449L66.8769 71.1363L50.902 88.4587L48.0829 91.5363L47.895 91.6242L44.2302 93.3828L28.1613 101.121C27.9734 100.945 27.7855 100.769 27.5975 100.593C27.2217 100.241 26.7518 99.8018 26.282 99.2742L43.0086 91.1846L46.3915 89.5139L47.2373 88.6346L48.9287 86.788L49.2106 86.4363L65.0915 69.2018L68.5683 65.4208L68.9443 65.7725L72.891 69.1139L85.0131 79.3139L85.8589 80.0173L87.6443 81.5121L89.9936 78.8742L90.5574 78.2587L105.217 61.9035L108.788 57.9466L108.882 57.8587L111.794 56.8035L114.332 55.9242L125.608 51.9673L128.991 50.8242L130.588 47.8346L143.838 23.1259L160.471 33.9415L163.29 35.7001L165.451 33.9415L166.297 33.238L169.586 30.6001L186.876 16.4432L189.132 14.5966L190.259 13.6294L191.857 15.4759Z" fill="#C5B2FE"/>
<path d="M197.871 28.4019L208.02 0.615723L177.197 6.33124L197.871 28.4019Z" fill="#C5B2FE"/>
<path d="M51.5598 90.4809C51.5598 92.6791 49.5864 94.5257 47.2372 94.5257C44.8879 94.5257 42.9146 92.6791 42.9146 90.4809C42.9146 88.2826 44.8879 86.436 47.2372 86.436C49.5864 86.436 51.5598 88.2826 51.5598 90.4809Z" fill="#C5B2FE"/>
<path d="M73.2669 67.5312C73.2669 69.7294 71.2936 71.576 68.9443 71.576C66.5951 71.576 64.6217 69.7294 64.6217 67.5312C64.6217 65.3329 66.5951 63.4863 68.9443 63.4863C71.3875 63.4863 73.2669 65.3329 73.2669 67.5312Z" fill="#C5B2FE"/>
<path d="M92.1549 82.3915C92.1549 84.5898 90.1815 86.4363 87.8323 86.4363C85.483 86.4363 83.5096 84.5898 83.5096 82.3915C83.5096 80.1932 85.483 78.3467 87.8323 78.3467C90.1815 78.3467 92.1549 80.1932 92.1549 82.3915Z" fill="#C5B2FE"/>
<path d="M113.11 59.7934C113.11 61.9916 111.137 63.8382 108.787 63.8382C106.438 63.8382 104.465 61.9916 104.465 59.7934C104.465 57.5951 106.438 55.7485 108.787 55.7485C111.137 55.7485 113.11 57.5951 113.11 59.7934Z" fill="#C5B2FE"/>
<path d="M134.253 51.8793C134.253 54.0776 132.28 55.9241 129.931 55.9241C127.581 55.9241 125.608 54.0776 125.608 51.8793C125.608 49.681 127.581 47.8345 129.931 47.8345C132.374 47.8345 134.253 49.681 134.253 51.8793Z" fill="#C5B2FE"/>
<path d="M167.237 37.1947C167.237 39.393 165.263 41.2396 162.914 41.2396C160.565 41.2396 158.591 39.393 158.591 37.1947C158.591 34.9965 160.565 33.1499 162.914 33.1499C165.263 33.2378 167.237 34.9965 167.237 37.1947Z" fill="#C5B2FE"/>
<path d="M149.194 26.3793C149.194 28.5776 147.221 30.4241 144.872 30.4241C142.523 30.4241 140.549 28.5776 140.549 26.3793C140.549 24.181 142.523 22.3345 144.872 22.3345C147.221 22.3345 149.194 24.181 149.194 26.3793Z" fill="#C5B2FE"/>
<path d="M25.7999 80.4002C26.3999 79.3002 26.9999 78.9002 26.3999 76.0002C24.5999 66.5002 33.1999 68.4002 33.6999 70.9002C33.7999 71.5002 33.5999 72.0002 32.8999 71.5002C31.7999 70.6002 28.4999 70.5002 31.7999 75.7002C32.6999 77.1002 35.0999 78.5002 31.5999 82.4002C28.3999 85.9002 31.7999 86.0002 31.8999 87.2002C32.1999 90.2002 22.8999 85.9002 25.7999 80.4002Z" fill="#FF8D00"/>
<path d="M45.8999 100.5C46.1999 102.5 41.8999 151.9 41.8999 151.9C41.8999 152 40.5999 152.8 39.5999 152C39.5999 152 38.7999 140.6 37.2999 129.9C35.9999 120.6 36.1999 111.8 35.3999 111.2V101.4C39.0999 101.6 44.5999 101.1 45.8999 100.5Z" fill="#0B1028"/>
<path d="M39.2999 150.9C39.5999 151 40.6999 151 40.9999 150.9C40.9999 150.7 40.9999 150.5 41.0999 150.3C41.3999 150.2 41.8999 149.9 42.0999 149.8C41.9999 150.3 41.8999 153.1 42.3999 153.5C43.0999 154 44.2999 154 44.4999 154C45.4999 154 45.6999 154.6 45.6999 154.8C45.6999 155.2 45.4999 155.3 45.1999 155.3C43.9999 155.3 41.1999 155.3 40.3999 155.3C39.8999 155.3 39.3999 155.4 38.8999 154.9C38.6999 154.7 38.6999 154.4 38.7999 154.1C38.9999 153.8 39.2999 151.7 39.2999 150.9Z" fill="#FF8D00"/>
<path d="M59.7999 67.9002C59.9999 67.8002 60.3999 68.6002 60.3999 68.8002C60.1999 69.2002 60.0999 69.3002 59.8999 69.8002C59.8999 69.4002 59.7999 68.8002 59.7999 68.4002C59.5999 68.1002 59.4999 67.9002 59.7999 67.9002Z" fill="#FF9873"/>
<path d="M40.1 78.9C42.3 78.8 49.3 80.4 52.8 80.5C57.1 80.7 55.4 83.6 54.1 84C50.6 85 40.7 86 40 84.3C39.7 83.5 39.7 78.9 40.1 78.9Z" fill="#FF9873"/>
<path d="M40.1 78.8999C41.7 78.7999 45.7 79.4999 49.1 79.6999C49.2 80.7999 49.3 82.3999 49.2 83.5999C49.2 84.0999 49.2 85.4999 49.1 85.8999C45.1 86.3999 40.5 85.4999 40 84.2999C39.7 83.4999 39.7 78.8999 40.1 78.8999Z" fill="#3011CC"/>
<path d="M52.5 81.5002C53.6 79.4002 59 72.1002 59.7 69.7002C60.4 70.1002 61 70.4002 61.5 70.5002C60.1 74.4002 55.7 83.9002 54 83.8002C52.5 83.7002 52.2 82.6002 52.3 81.9002C52.4 81.8002 52.5 81.6002 52.5 81.5002Z" fill="#FF9873"/>
<path d="M62.8999 68.0003C62.3999 69.0003 61.7999 70.2003 61.5999 70.6003C60.8999 70.7003 59.7999 69.8003 59.7999 69.8003C60.0999 69.3003 60.2999 68.6003 60.4999 68.1003C60.6999 67.6003 61.3999 66.5003 61.4999 66.5003C61.5999 66.3003 61.9999 65.7003 62.0999 65.6003C62.2999 65.4003 62.4999 65.4003 62.6999 65.5003C62.7999 65.6003 62.8999 65.7003 62.5999 66.3003C62.1999 66.9003 61.9999 67.3003 61.9999 67.3003C61.9999 67.3003 62.3999 67.2003 62.3999 67.5003C62.3999 67.5003 62.7999 67.4003 62.7999 67.8003C62.7999 67.7003 62.9999 67.7003 62.8999 68.0003Z" fill="#FF9873"/>
<path d="M27.2 100.5C28.4 101 37.3 102.7 41.1 102.5C41.1 102.5 40.9 107.5 40.1 110.5C38.9 115.2 37.2 123.1 36.4 127.2C34.3 137.7 30.5 151.6 30.5 151.6C29.4 152.2 28.2 151.3 28.1 151.2C28.1 151.2 28.2 132.2 29 127.8C29.8 124 27.1 101.6 27.2 100.5Z" fill="#192344"/>
<path d="M46.0999 104.1C46.0999 104.1 47.2999 109.9 46.6999 110.4C45.3999 111.5 40.4999 110.5 36.7999 110C33.0999 109.5 26.1999 110.3 25.9999 109.5C25.4999 107.4 26.3999 102.9 26.3999 102.9L46.0999 104.1Z" fill="#3011CC"/>
<path d="M36.5 72.8999C36.8 73.0999 39.5 74.5999 40.3 74.4999C40.3 74.6999 39.8 77.0999 40.3 78.2999C39.8 80.1999 36.9 79.2999 36.1 77.3999C36.3 76.7999 36.6 73.8999 36.5 72.8999Z" fill="#FF9873"/>
<path d="M36.1999 69.8001C37.3999 69.0001 38.6999 68.6 39.6999 69.6C39.9999 70 42.0999 73.8 40.3999 75.6C39.6999 76.3 37.1999 75.9 36.5999 74.9L35.6999 73.6C34.7999 72.3 34.8999 70.7001 36.1999 69.8001Z" fill="#FF9873"/>
<path d="M28.4999 83.1999C29.3999 80.4999 30.3999 78.9999 32.7999 78.3999C33.5999 78.1999 35.9999 77.3999 35.9999 77.3999C35.9999 77.3999 37.6999 79.0999 38.7999 79.1999C39.5999 79.2999 40.1999 78.2999 40.1999 78.2999C40.1999 78.2999 42.9999 79.2999 43.4999 79.5999C45.4999 80.8999 45.4999 82.9999 45.5999 84.7999C46.6999 102.7 47.4999 105.3 46.9999 106.3C45.7999 108.7 25.5999 107.1 25.9999 104.1C27.1999 94.0999 28.1999 83.9999 28.4999 83.1999Z" fill="#4619D9"/>
<path d="M33.1 70.9C33.9 68.2 37.7 68.3 37.7 68.3C40.1 67.4 41.4 70.8 40.7 71.8C39.8 69.3 37.8 69.4 37.8 69.4C34.9 71.1 35.9 75.1 36.7 75.8C36.7 75.9 31.8 74.9 33.1 70.9Z" fill="#FF8D00"/>
<path d="M35.4 72.9998C35.5 72.8998 35.8 72.7998 36.1 72.8998C36.2 73.3998 36.4 74.2998 36.4 74.6998C36 74.7998 35.4 74.4998 35.2 74.1998C35 73.8998 35.1 73.1998 35.4 72.9998Z" fill="#FF9873"/>
<path d="M32.6 70.1002C32.7 69.9002 32.9 69.8002 33 69.7002C33.4 69.5002 33.8 69.6002 33.8 69.6002C33.1 70.4002 32.9 71.6002 32.9 71.6002C32.4 71.4002 32.2 70.9002 32.6 70.1002Z" fill="#4619D9"/>
<path d="M28.2 150.8C28.5 150.9 29.6 151 29.9 150.9C29.9 150.7 29.9 150.5 30 150.3C30.3 150.2 30.8 149.9 31.1 149.9C31 150.4 30.7 153.2 31.2 153.6C31.8 154.1 33.1 154.2 33.3 154.2C34.3 154.3 34.5 154.8 34.5 155.1C34.5 155.5 34.2 155.6 34 155.6C32.8 155.5 30 155.4 29.2 155.3C28.7 155.3 28.2 155.3 27.8 154.8C27.7 154.6 27.7 154.3 27.8 154C27.7 153.6 28.1 151.6 28.2 150.8Z" fill="#FF8D00"/>
<path d="M36.2999 83.3002L32.3999 99.2002C32.3999 99.4002 32.3999 99.9002 33.0999 99.9002L39.8999 99.8002L41.0999 82.6002H37.3999C36.7999 82.5002 36.3999 82.8002 36.2999 83.3002Z" fill="#8358FF"/>
<path d="M47.0999 82.5H37.6999C37.5999 82.5 37.3999 82.6 37.3999 82.7L33.2999 99.4C33.1999 99.6 33.3999 99.8 33.5999 99.8H42.0999C42.7999 99.8 43.4999 99.3 43.6999 98.6L47.5999 82.8C47.4999 82.7 47.2999 82.5 47.0999 82.5Z" fill="#9872FF"/>
<path d="M41.4999 90.5002C41.6999 90.4002 41.8999 90.2002 41.9999 90.5002C42.0999 90.7002 41.3999 91.2002 41.1999 91.2002C40.6999 91.1002 40.7999 90.8002 40.2999 90.8002C40.6999 90.8002 41.0999 90.7002 41.4999 90.5002Z" fill="#FF9873"/>
<path d="M39.9999 90.7998C40.3999 90.7998 40.8999 90.8998 41.3999 90.9998C41.9999 91.0998 43.1999 91.4998 43.1999 91.4998C43.3999 91.5998 43.3999 91.5998 43.5999 91.7998C43.6999 91.8998 43.8999 92.1998 43.8999 92.3998C43.8999 92.5998 43.6999 92.6998 43.6999 92.6998C43.6999 92.9998 43.0999 92.9998 43.0999 92.9998C43.1999 93.2998 43.4999 93.5998 42.5999 93.2998C42.4999 93.2998 40.0999 92.8998 39.2999 92.7998C39.2999 92.1998 39.8999 90.7998 39.9999 90.7998Z" fill="#FF9873"/>
<path d="M35.0999 82.6001C34.1999 84.6001 29.9999 90.1001 28.2999 93.1001C26.1999 96.8001 24.3999 94.0001 24.5999 92.7001C25.2999 89.2001 28.8999 80.5001 30.3999 80.1001C31.0999 79.8001 35.1999 82.2001 35.0999 82.6001Z" fill="#FF9873"/>
<path d="M35.6999 82.7C35.5999 84.3 32.5999 87.4 30.8999 90.4C29.2999 90.2 26.8999 89.1 25.3999 87.6C26.7999 83.8 28.7999 80.8 29.7999 80C32.2999 78.1 35.7999 80.7 35.6999 82.7Z" fill="#4619D9"/>
<path d="M25.7999 92.0998C25.9999 91.9998 26.0999 91.9998 26.1999 91.8998C28.5999 91.4998 37.5999 91.5998 39.9999 90.7998C40.0999 91.5998 40.1999 92.2998 40.3999 92.7998C36.3999 93.9998 26.1999 95.9998 25.2999 94.5998C24.3999 93.2998 25.0999 92.3998 25.7999 92.0998Z" fill="#FF9873"/>
<g clip-path="url(#clip0)">
<path d="M87.9656 142.274C88.0518 142.565 87.707 143 87.276 143C86.8449 143 86.4139 142.855 86.3277 142.565L80.7242 127.112L85.638 126.894L87.9656 142.274Z" fill="#192344"/>
<path d="M76.2414 115.649L83.0517 115.214L84.6034 130.086L77.7931 130.522C73.569 130.812 69.7759 127.692 69.3449 123.557C68.9138 119.422 71.9311 115.867 76.2414 115.649Z" fill="#E50A43"/>
<path d="M82.7931 115.214C82.8793 115.214 82.9655 115.214 83.0517 115.214L107.276 106.798L110.293 135.31L84.6034 130.086C84.6034 130.086 84.6034 130.086 84.5172 130.086C82.0172 130.304 79.5172 127.112 79.0862 122.976C78.569 118.841 80.2069 115.359 82.7931 115.214Z" fill="#FF1D52"/>
<path d="M108.138 106.653C112.793 106.29 117.276 112.457 118.224 120.437C119.172 128.345 116.241 135.092 111.586 135.455C108.914 135.673 106.241 133.641 104.259 130.304C103.31 128.708 102.621 126.894 102.103 124.863C101.845 123.847 101.672 122.759 101.5 121.671C101.414 120.582 101.328 119.494 101.328 118.478C101.328 116.084 101.759 113.835 102.448 112.022C103.569 108.829 105.638 106.798 108.138 106.653Z" fill="#E50A43"/>
<path d="M105.983 109.555C109.69 109.264 113.31 114.198 114 120.51C114.776 126.821 112.362 132.19 108.741 132.48C107.103 132.625 105.552 131.755 104.259 130.231C103.31 128.635 102.621 126.821 102.103 124.79C101.845 123.774 101.672 122.686 101.5 121.598C101.414 120.51 101.328 119.421 101.328 118.406C101.328 116.012 101.759 113.763 102.448 111.949C103.31 110.57 104.603 109.7 105.983 109.555Z" fill="#192344"/>
<path d="M105.81 117.825L101.414 117.027C101.414 117.027 100.81 121.163 102.707 126.821L106.672 125.153L105.81 117.825Z" fill="#E50A43"/>
<path d="M105.638 117.826C106.845 117.753 107.966 119.277 108.224 121.308C108.483 123.339 107.707 125.008 106.586 125.081C106.069 125.153 105.552 124.863 105.121 124.355C104.862 123.847 104.604 123.267 104.431 122.614C104.345 122.324 104.259 121.961 104.259 121.598C104.259 121.236 104.172 120.945 104.172 120.583C104.172 119.785 104.345 119.132 104.517 118.551C104.776 118.188 105.207 117.898 105.638 117.826Z" fill="#FF1D52"/>
</g>
<path d="M128.5 87.1L72.3999 90.9V11.5L128.5 20.1V87.1Z" fill="#7E2D98"/>
<path d="M74.7999 11.5V90.9L76.7999 90.8L79.8999 90.6L98.4999 89.3L113 88.3H113.9L117.4 88L122.7 87.7H122.9L125.8 87.5L130.1 87.2L130.9 87.1V20.1L74.7999 11.5Z" fill="white"/>
<path d="M121.2 51.1998L120.4 53.0998C120.2 52.9998 119.9 52.8998 119.6 52.8998C118.6 52.7998 117.7 53.4998 117.5 54.3998L115.4 53.7998C115.6 52.9998 115.9 52.2998 116.5 51.7998C117.9 50.6998 119.7 50.4998 121.2 51.1998Z" fill="#4619D9"/>
<path d="M119.7 57.2002C120.9 57.3002 121.8 56.4002 121.8 55.2002C121.8 54.6002 121.5 54.0002 121.1 53.6002L122.5 52.2002L122.6 52.3002C124.2 54.1002 124.2 56.8002 122.6 58.3002C121 59.9002 118.3 59.7002 116.7 57.9002C116.4 57.5002 116.1 57.1002 115.9 56.7002L117.8 55.9002C118.1 56.6002 118.9 57.2002 119.7 57.2002Z" fill="#FF8D00"/>
<path d="M122.5 52.2002L121.1 53.6002C120.9 53.4002 120.7 53.2002 120.4 53.1002L121.2 51.2002C121.7 51.5002 122.1 51.8002 122.5 52.2002Z" fill="#FF1D52"/>
<path d="M117.6 54.5C117.6 54.6 117.6 54.8 117.6 55C117.6 55.3 117.7 55.7 117.8 56L115.9 56.8C115.5 55.9 115.4 54.9 115.6 54L117.6 54.5Z" fill="#00E18E"/>
<path d="M101 54.9998C101.7 55.7998 102.8 55.8998 103.6 55.3998L104.7 57.1998C104.1 57.5998 103.3 57.7998 102.5 57.7998C100.8 57.7998 99.3 56.5998 98.6 55.0998L100.5 54.2998C100.7 54.5998 100.8 54.7998 101 54.9998Z" fill="#FF8D00"/>
<path d="M102.5 49.2999C104.8 49.3999 106.7 51.3999 106.7 53.6999C106.7 54.1999 106.6 54.5999 106.5 55.0999L104.5 54.3999C104.7 53.6999 104.6 52.7999 104 52.1999C103.2 51.2999 101.9 51.2999 101 52.0999C100.6 52.4999 100.4 53.0999 100.4 53.6999H98.2999V53.5999C98.2999 50.9999 100.2 49.1999 102.5 49.2999Z" fill="#4619D9"/>
<path d="M104.5 54.2998L106.5 54.9998C106.2 55.8998 105.6 56.6998 104.8 57.1998L103.7 55.3998C103.8 55.2998 103.9 55.1998 104 55.0998C104.2 54.8998 104.4 54.5998 104.5 54.2998Z" fill="#FF1D52"/>
<path d="M100.6 54.4001L98.6999 55.2001C98.4999 54.7001 98.3999 54.2001 98.3999 53.6001H100.5C100.4 53.8001 100.5 54.1001 100.6 54.4001Z" fill="#00E18E"/>
<path d="M84.5999 48.2999C85.0999 48.2999 85.4999 48.3999 85.8999 48.5999L85.1999 50.5999C84.4999 50.2999 83.5999 50.3999 82.9999 50.9999C82.1999 51.7999 82.1999 53.1999 82.9999 53.9999C83.3999 54.4999 83.9999 54.6999 84.5999 54.6999L84.6999 56.7999H84.5999C82.2999 56.6999 80.3999 54.6999 80.3999 52.2999C80.3999 49.9999 82.2999 48.1999 84.5999 48.2999Z" fill="#4619D9"/>
<path d="M86.3999 51.6001L88.0999 50.6001C88.4999 51.3001 88.7999 52.1001 88.7999 52.9001C88.7999 54.7001 87.7999 56.1001 86.2999 56.7001L85.4999 54.7001C85.6999 54.6001 85.9999 54.5001 86.1999 54.3001C86.7999 53.5001 86.8999 52.4001 86.3999 51.6001Z" fill="#FF8D00"/>
<path d="M88.0999 50.5L86.3999 51.5C86.2999 51.4 86.1999 51.2 86.0999 51.1C85.8999 50.8 85.5999 50.7 85.2999 50.5L85.9999 48.5C86.8999 49 87.5999 49.7 88.0999 50.5Z" fill="#FF1D52"/>
<path d="M86.2999 56.6002C85.7999 56.8002 85.2999 56.9002 84.7999 56.9002L84.7 54.8002C85 54.8002 85.1999 54.8002 85.4999 54.7002L86.2999 56.6002Z" fill="#00E18E"/>
<path d="M120.6 35.3998L120.3 45.8998L115.7 45.4998L115.9 34.7998L120.6 35.3998Z" fill="#FF1D52"/>
<path d="M112.7 30.2998L112.4 45.1998L107.9 44.7998L108.2 29.7998L112.7 30.2998Z" fill="#4619D9"/>
<path d="M105 31.8999L104.8 44.4999L100.5 44.0999L100.7 31.3999L105 31.8999Z" fill="#FF1D52"/>
<path d="M97.7 24.2998L97.6 43.8998L93.5 43.4998L93.6 23.7998L97.7 24.2998Z" fill="#4619D9"/>
<path d="M90.5999 43.2002L86.7 42.9002V18.7002L90.7 19.3002L90.5999 43.2002Z" fill="#FF1D52"/>
<path d="M74.7999 11.5H72.3999V90.9H74.7999V11.5Z" fill="#9872FF"/>
<path d="M74.7999 11.5V14.8L130.9 22.7V20.1L74.7999 11.5Z" fill="#192344"/>
<path d="M74.7999 11.5H72.3999V14.8H74.7999V11.5Z" fill="#0B1028"/>
<path d="M78.6 12.7002L76.9 14.2002C76.8 14.3002 76.8 14.4002 76.9 14.4002C77 14.5002 77.1 14.5002 77.1 14.4002L78.8 12.9002C78.9 12.8002 78.9 12.7002 78.8 12.7002C78.7 12.7002 78.6 12.7002 78.6 12.7002Z" fill="white"/>
<path d="M77.1 12.4998C77 12.3998 76.9 12.3998 76.9 12.4998C76.8 12.5998 76.8 12.6998 76.9 12.6998L78.6 14.6998C78.7 14.7998 78.8 14.7998 78.8 14.6998C78.9 14.5998 78.9 14.4998 78.8 14.4998L77.1 12.4998Z" fill="white"/>
<path d="M80.1 13.9C80.1 14.6 80.6 15.2 81.3 15.2C81.9 15.3 82.4 14.8 82.4 14.2C82.4 13.5 81.9 12.9 81.2 12.9C80.6 12.8 80 13.3 80.1 13.9ZM80.3 14C80.3 13.5 80.7 13.1 81.2 13.2C81.7 13.3 82.1 13.7 82.1 14.2C82.1 14.7 81.7 15.1 81.2 15C80.7 14.9 80.3 14.5 80.3 14Z" fill="white"/>
<path d="M85.5999 15.5002L83.4999 15.2002C83.3999 15.2002 83.3999 15.2002 83.3999 15.3002C83.3999 15.4002 83.4999 15.4002 83.4999 15.5002L85.5999 15.8002C85.6999 15.8002 85.6999 15.8002 85.6999 15.7002C85.7999 15.5002 85.6999 15.5002 85.5999 15.5002Z" fill="white"/>
<path d="M79.8999 72.4001V73.0001C79.9999 73.0001 80.1999 73.1001 80.2999 73.1001L98.9998 73.0001C98.8998 72.8001 98.6999 72.7001 98.5999 72.5001L80.3999 72.6001C80.1999 72.5001 79.9999 72.5001 79.8999 72.4001ZM78.5999 62.6001V71.5001C78.5999 72.2001 79.0999 72.8001 79.7999 73.0001C79.8999 73.0001 80.0999 73.1001 80.1999 73.1001L98.8999 73.0001L111 72.9001H111.8H116.2L126 72.8001C126 72.8001 126 72.8001 126.1 72.8001C126.4 72.8001 126.6 72.7001 126.8 72.4001C127 72.2001 127.1 71.8001 127.1 71.5001V64.4001C127.1 63.7001 126.6 63.1001 126 63.1001L119.8 62.8001L112.2 62.5001H111.5L97.5999 61.9001L93.5999 61.7001L80.2999 61.1001C80.0999 61.1001 79.9999 61.1001 79.8999 61.1001C79.5999 61.2001 79.2999 61.3001 79.0999 61.5001C78.7999 61.8001 78.5999 62.2001 78.5999 62.6001ZM79.1999 62.6001C79.1999 62.4001 79.2999 62.1001 79.4999 61.9001C79.5999 61.8001 79.6999 61.7001 79.8999 61.7001C79.9999 61.7001 80.0999 61.6001 80.1999 61.6001H80.2999L93.6999 62.2001L97.6999 62.4001L111.4 63.0001H111.9H112.1L120.1 63.3001L126 63.5001C126.4 63.5001 126.7 63.9001 126.7 64.3001V71.4001C126.7 71.6001 126.6 71.8001 126.5 72.0001C126.4 72.1001 126.2 72.2001 126 72.2001H115.5H111.7H110.9L98.3999 72.3001L80.1999 72.4001C79.9999 72.4001 79.8999 72.4001 79.6999 72.3001C79.2999 72.1001 78.9999 71.8001 78.9999 71.4001L79.1999 62.6001ZM79.8999 72.4001V73.0001C79.9999 73.0001 80.1999 73.1001 80.2999 73.1001L98.9998 73.0001C98.8998 72.8001 98.6999 72.7001 98.5999 72.5001L80.3999 72.6001C80.1999 72.5001 79.9999 72.5001 79.8999 72.4001ZM79.8999 72.4001V73.0001C79.9999 73.0001 80.1999 73.1001 80.2999 73.1001L98.9998 73.0001C98.8998 72.8001 98.6999 72.7001 98.5999 72.5001L80.3999 72.6001C80.1999 72.5001 79.9999 72.5001 79.8999 72.4001Z" fill="#9872FF"/>
<path fill-rule="evenodd" clip-rule="evenodd" d="M92.6999 64.4998L85.3999 64.0998V62.7998L92.6999 63.1998V64.4998Z" fill="#9872FF"/>
<path fill-rule="evenodd" clip-rule="evenodd" d="M96.1999 66.8001L85.3999 66.4001V65.1001L96.1999 65.5001V66.8001Z" fill="#9872FF"/>
<path fill-rule="evenodd" clip-rule="evenodd" d="M104.5 64.9998L95.2999 64.5998V63.2998L104.5 63.7998V64.9998Z" fill="#9872FF"/>
<path fill-rule="evenodd" clip-rule="evenodd" d="M110.3 65.2999L105.8 65.0999V63.8999L110.3 64.0999V65.2999Z" fill="#9872FF"/>
<path fill-rule="evenodd" clip-rule="evenodd" d="M116.8 65.6002L111.7 65.3002V64.2002L116.8 64.5002V65.6002Z" fill="#9872FF"/>
<path fill-rule="evenodd" clip-rule="evenodd" d="M114.2 67.2999L104.7 66.9999V65.8999L114.2 66.2999V67.2999Z" fill="#9872FF"/>
<path fill-rule="evenodd" clip-rule="evenodd" d="M92.6999 67.5999V68.7999L85.3999 68.6999V67.3999L92.6999 67.5999Z" fill="#9872FF"/>
<path fill-rule="evenodd" clip-rule="evenodd" d="M105.7 71.1002L85.3999 71.0002V69.7002L105.7 70.0002V71.1002Z" fill="#9872FF"/>
<path fill-rule="evenodd" clip-rule="evenodd" d="M107 69.1002L95.2999 68.9002V67.7002L107 68.0002V69.1002Z" fill="#9872FF"/>
<path fill-rule="evenodd" clip-rule="evenodd" d="M114.2 69.3L108.7 69.1V68L114.2 68.2V69.3Z" fill="#9872FF"/>
<path fill-rule="evenodd" clip-rule="evenodd" d="M122.1 68.4002V69.4002L116 69.3002V68.2002L122.1 68.4002Z" fill="#9872FF"/>
<path fill-rule="evenodd" clip-rule="evenodd" d="M116.8 70.1V71.2L107.4 71.1V70L116.8 70.1Z" fill="#9872FF"/>
<path fill-rule="evenodd" clip-rule="evenodd" d="M102.7 67.0001L97.8999 66.8001V65.6001L102.7 65.8001V67.0001Z" fill="#9872FF"/>
<path d="M78.6998 77.7002V86.6002C78.6998 87.3002 79.1998 87.9002 79.8998 88.0002C79.9998 88.0002 80.1998 88.0002 80.3998 88.0002L98.9998 86.7002L113 85.8002L113.8 85.7002L117.9 85.4002L120.2 85.2002L126.1 84.8002C126.4 84.8002 126.7 84.6002 126.9 84.4002C127.1 84.1002 127.2 83.8002 127.2 83.5002V78.9002V76.4002C127.2 75.7002 126.7 75.2002 126.1 75.2002L119.6 75.3002L111.9 75.4002H111.1L101.6 75.6002L80.2998 76.0002C80.0998 76.0002 79.9998 76.0002 79.7998 76.1002C79.4998 76.2002 79.2998 76.3002 79.0998 76.5002C78.7998 76.9002 78.6998 77.3002 78.6998 77.7002ZM79.1998 77.7002C79.1998 77.4002 79.2998 77.2002 79.4998 77.0002C79.5998 76.9002 79.6998 76.8002 79.8998 76.7002C79.9998 76.6002 80.1998 76.6002 80.2998 76.6002C80.2998 76.6002 80.2998 76.6002 80.3998 76.6002L102.3 76.2002L111.2 76.0002H112L120 75.8002L126.2 75.7002C126.6 75.7002 126.9 76.0002 126.9 76.5002V79.6002V83.6002C126.9 83.8002 126.8 84.0002 126.7 84.2002C126.6 84.3002 126.4 84.4002 126.2 84.4002L119.8 84.8002L118 84.9002L113.8 85.2002L112.3 85.3002L98.9998 86.2002L80.2998 87.4002C80.0998 87.4002 79.9998 87.4002 79.7998 87.3002C79.3998 87.2002 79.1998 86.8002 79.1998 86.4002V77.7002Z" fill="#9872FF"/>
<path fill-rule="evenodd" clip-rule="evenodd" d="M123.4 78.8999V79.8999L118.7 80.0999V78.9999L123.4 78.8999Z" fill="#9872FF"/>
<path fill-rule="evenodd" clip-rule="evenodd" d="M116.8 78.3999L102.9 78.7999V77.6999L116.8 77.3999V78.3999Z" fill="#9872FF"/>
<path fill-rule="evenodd" clip-rule="evenodd" d="M98.6999 78.9002L88.0999 79.2002V78.0002L98.6999 77.7002V78.9002Z" fill="#9872FF"/>
<path fill-rule="evenodd" clip-rule="evenodd" d="M100.7 80.7001L89.1998 81.2001V80.0001L100.7 79.6001V80.7001Z" fill="#9872FF"/>
<path fill-rule="evenodd" clip-rule="evenodd" d="M97.2998 82.8002L89.1998 83.3002V82.1002L97.2998 81.7002V82.8002Z" fill="#9872FF"/>
<path fill-rule="evenodd" clip-rule="evenodd" d="M110.6 80.3002L102.9 80.6002V79.5002L110.6 79.2002V80.3002Z" fill="#9872FF"/>
<path fill-rule="evenodd" clip-rule="evenodd" d="M112.5 82L99.0999 82.7V81.6L112.5 81V82Z" fill="#9872FF"/>
<path fill-rule="evenodd" clip-rule="evenodd" d="M117 81.7998L113.7 81.9998V80.8998L117 80.7998V81.7998Z" fill="#9872FF"/>
<path fill-rule="evenodd" clip-rule="evenodd" d="M102.8 84.3999L95.5999 84.8999V83.7999L102.8 83.3999V84.3999Z" fill="#9872FF"/>
<path fill-rule="evenodd" clip-rule="evenodd" d="M115.6 83.6001L103.9 84.4001V83.3001L115.6 82.6001V83.6001Z" fill="#9872FF"/>
<path fill-rule="evenodd" clip-rule="evenodd" d="M120.2 83.3999L116.8 83.5999V82.5999L120.2 82.3999V83.3999Z" fill="#9872FF"/>
<defs>
<clipPath id="clip0">
<rect width="50" height="37" fill="white" transform="translate(69 106)"/>
</clipPath>
</defs>
</svg>
