<svg width="39" height="91" viewBox="0 0 39 91" fill="none" xmlns="http://www.w3.org/2000/svg">
<path d="M1.79987 15.4C2.39987 14.3 2.99988 13.9 2.39988 11C0.599877 1.50001 9.19988 3.40001 9.69988 5.90001C9.79988 6.50001 9.59988 7.00001 8.89988 6.50001C7.79988 5.60001 4.49987 5.50001 7.79987 10.7C8.69987 12.1 11.0999 13.5 7.59987 17.4C4.39987 20.9 7.79988 21 7.89988 22.2C8.19988 25.2 -1.10013 20.9 1.79987 15.4Z" fill="#FF8D00"/>
<path d="M21.8999 35.5C22.1999 37.5 17.8999 86.9 17.8999 86.9C17.8999 87 16.5999 87.8 15.5999 87C15.5999 87 14.7999 75.6 13.2999 64.9C11.9999 55.6 12.1999 46.8 11.3999 46.2V36.4C15.0999 36.6 20.5999 36.1 21.8999 35.5Z" fill="#0B1028"/>
<path d="M15.2999 85.9C15.5999 86 16.6999 86 16.9999 85.9C16.9999 85.7 16.9999 85.5 17.0999 85.3C17.3999 85.2 17.8999 84.9 18.0999 84.8C17.9999 85.3 17.8999 88.1 18.3999 88.5C19.0999 89 20.2999 89 20.4999 89C21.4999 89 21.6999 89.6 21.6999 89.8C21.6999 90.2 21.4999 90.3 21.1999 90.3C19.9999 90.3 17.1999 90.3 16.3999 90.3C15.8999 90.3 15.3999 90.4 14.8999 89.9C14.6999 89.7 14.6999 89.4 14.7999 89.1C14.9999 88.8 15.2999 86.7 15.2999 85.9Z" fill="#FF8D00"/>
<path d="M35.7999 2.90001C35.9999 2.80001 36.3999 3.60001 36.3999 3.80001C36.1999 4.20001 36.0999 4.30001 35.8999 4.80001C35.8999 4.40001 35.7999 3.80001 35.7999 3.40001C35.5999 3.10001 35.4999 2.90001 35.7999 2.90001Z" fill="#FF9873"/>
<path d="M16.1 13.9C18.3 13.8 25.3 15.4 28.8 15.5C33.1 15.7 31.4 18.6 30.1 19C26.6 20 16.7 21 16 19.3C15.7 18.5 15.7 13.9 16.1 13.9Z" fill="#FF9873"/>
<path d="M16.1 13.9C17.7 13.8 21.7 14.5 25.1 14.7C25.2 15.8 25.3 17.4 25.2 18.6C25.2 19.1 25.2 20.5 25.1 20.9C21.1 21.4 16.5 20.5 16 19.3C15.7 18.5 15.7 13.9 16.1 13.9Z" fill="#3011CC"/>
<path d="M28.5 16.5C29.6 14.4 35 7.10001 35.7 4.70001C36.4 5.10001 37 5.40002 37.5 5.50002C36.1 9.40002 31.7 18.9 30 18.8C28.5 18.7 28.2 17.6 28.3 16.9C28.4 16.8 28.5 16.6 28.5 16.5Z" fill="#FF9873"/>
<path d="M38.8999 3.00001C38.3999 4.00001 37.7999 5.20001 37.5999 5.60001C36.8999 5.70001 35.7999 4.80002 35.7999 4.80002C36.0999 4.30002 36.2999 3.60001 36.4999 3.10001C36.6999 2.60001 37.3999 1.50001 37.4999 1.50001C37.5999 1.30001 37.9999 0.700011 38.0999 0.600011C38.2999 0.400011 38.4999 0.400012 38.6999 0.500012C38.7999 0.600012 38.8999 0.700015 38.5999 1.30002C38.1999 1.90002 37.9999 2.30002 37.9999 2.30002C37.9999 2.30002 38.3999 2.20001 38.3999 2.50001C38.3999 2.50001 38.7999 2.40002 38.7999 2.80002C38.7999 2.70002 38.9999 2.70001 38.8999 3.00001Z" fill="#FF9873"/>
<path d="M3.19998 35.5C4.39998 36 13.3 37.7 17.1 37.5C17.1 37.5 16.9 42.5 16.1 45.5C14.9 50.2 13.2 58.1 12.4 62.2C10.3 72.7 6.49997 86.6 6.49997 86.6C5.39997 87.2 4.19998 86.3 4.09998 86.2C4.09998 86.2 4.19997 67.2 4.99997 62.8C5.79997 59 3.09998 36.6 3.19998 35.5Z" fill="#192344"/>
<path d="M22.0999 39.1C22.0999 39.1 23.2999 44.9 22.6999 45.4C21.3999 46.5 16.4999 45.5 12.7999 45C9.09986 44.5 2.19986 45.3 1.99986 44.5C1.49986 42.4 2.39987 37.9 2.39987 37.9L22.0999 39.1Z" fill="#3011CC"/>
<path d="M12.5 7.90002C12.8 8.10002 15.5 9.60002 16.3 9.50002C16.3 9.70002 15.8 12.1 16.3 13.3C15.8 15.2 12.9 14.3 12.1 12.4C12.3 11.8 12.6 8.90002 12.5 7.90002Z" fill="#FF9873"/>
<path d="M12.1999 4.80002C13.3999 4.00002 14.6999 3.60001 15.6999 4.60001C15.9999 5.00001 18.0999 8.80001 16.3999 10.6C15.6999 11.3 13.1999 10.9 12.5999 9.90001L11.6999 8.60001C10.7999 7.30001 10.8999 5.70002 12.1999 4.80002Z" fill="#FF9873"/>
<path d="M4.49988 18.2C5.39988 15.5 6.39988 14 8.79988 13.4C9.59988 13.2 11.9999 12.4 11.9999 12.4C11.9999 12.4 13.6999 14.1 14.7999 14.2C15.5999 14.3 16.1999 13.3 16.1999 13.3C16.1999 13.3 18.9999 14.3 19.4999 14.6C21.4999 15.9 21.4999 18 21.5999 19.8C22.6999 37.7 23.4999 40.3 22.9999 41.3C21.7999 43.7 1.59988 42.1 1.99988 39.1C3.19988 29.1 4.19988 19 4.49988 18.2Z" fill="#4619D9"/>
<path d="M9.09996 5.90002C9.89996 3.20002 13.7 3.30002 13.7 3.30002C16.1 2.40002 17.4 5.80002 16.7 6.80002C15.8 4.30002 13.8 4.40002 13.8 4.40002C10.9 6.10002 11.9 10.1 12.7 10.8C12.7 10.9 7.79996 9.90002 9.09996 5.90002Z" fill="#FF8D00"/>
<path d="M11.4 8.00002C11.5 7.90002 11.8 7.80002 12.1 7.90002C12.2 8.40002 12.4 9.30001 12.4 9.70001C12 9.80001 11.4 9.50001 11.2 9.20001C11 8.90001 11.1 8.20002 11.4 8.00002Z" fill="#FF9873"/>
<path d="M8.6 5.10001C8.7 4.90001 8.89999 4.80001 8.99999 4.70001C9.39999 4.50001 9.79999 4.60001 9.79999 4.60001C9.09999 5.40001 8.9 6.60001 8.9 6.60001C8.4 6.40001 8.2 5.90001 8.6 5.10001Z" fill="#4619D9"/>
<path d="M4.19998 85.8C4.49998 85.9 5.59998 86 5.89998 85.9C5.89998 85.7 5.89997 85.5 5.99997 85.3C6.29997 85.2 6.79998 84.9 7.09998 84.9C6.99998 85.4 6.69998 88.2 7.19998 88.6C7.79998 89.1 9.09998 89.2 9.29998 89.2C10.3 89.3 10.5 89.8 10.5 90.1C10.5 90.5 10.2 90.6 9.99997 90.6C8.79997 90.5 5.99998 90.4 5.19998 90.3C4.69998 90.3 4.19998 90.3 3.79998 89.8C3.69998 89.6 3.69998 89.3 3.79998 89C3.69998 88.6 4.09998 86.6 4.19998 85.8Z" fill="#FF8D00"/>
<path d="M12.2999 18.3L8.3999 34.2C8.3999 34.4 8.3999 34.9 9.0999 34.9L15.8999 34.8L17.0999 17.6H13.3999C12.7999 17.5 12.3999 17.8 12.2999 18.3Z" fill="#8358FF"/>
<path d="M23.0999 17.5H13.6999C13.5999 17.5 13.3999 17.6 13.3999 17.7L9.29991 34.4C9.19991 34.6 9.39992 34.8 9.59992 34.8H18.0999C18.7999 34.8 19.4999 34.3 19.6999 33.6L23.5999 17.8C23.4999 17.7 23.2999 17.5 23.0999 17.5Z" fill="#9872FF"/>
<path d="M17.4999 25.5C17.6999 25.4 17.8999 25.2 17.9999 25.5C18.0999 25.7 17.3999 26.2 17.1999 26.2C16.6999 26.1 16.7999 25.8 16.2999 25.8C16.6999 25.8 17.0999 25.7 17.4999 25.5Z" fill="#FF9873"/>
<path d="M15.9999 25.8C16.3999 25.8 16.8999 25.9 17.3999 26C17.9999 26.1 19.1999 26.5 19.1999 26.5C19.3999 26.6 19.3999 26.6 19.5999 26.8C19.6999 26.9 19.8999 27.2 19.8999 27.4C19.8999 27.6 19.6999 27.7 19.6999 27.7C19.6999 28 19.0999 28 19.0999 28C19.1999 28.3 19.4999 28.6 18.5999 28.3C18.4999 28.3 16.0999 27.9 15.2999 27.8C15.2999 27.2 15.8999 25.8 15.9999 25.8Z" fill="#FF9873"/>
<path d="M11.0999 17.6C10.1999 19.6 5.99993 25.1 4.29993 28.1C2.19993 31.8 0.399936 29 0.599936 27.7C1.29994 24.2 4.89994 15.5 6.39994 15.1C7.09994 14.8 11.1999 17.2 11.0999 17.6Z" fill="#FF9873"/>
<path d="M11.6999 17.7C11.5999 19.3 8.5999 22.4 6.8999 25.4C5.2999 25.2 2.8999 24.1 1.3999 22.6C2.7999 18.8 4.7999 15.8 5.7999 15C8.2999 13.1 11.7999 15.7 11.6999 17.7Z" fill="#4619D9"/>
<path d="M1.79991 27.1C1.99991 27 2.09992 27 2.19992 26.9C4.59992 26.5 13.5999 26.6 15.9999 25.8C16.0999 26.6 16.1999 27.3 16.3999 27.8C12.3999 29 2.19991 31 1.29991 29.6C0.399914 28.3 1.09991 27.4 1.79991 27.1Z" fill="#FF9873"/>
</svg>
