<svg width="123" height="74" viewBox="0 0 123 74" fill="none" xmlns="http://www.w3.org/2000/svg">
<path d="M111.1 14.6219C112.1 14.4219 112.6 14.2219 112.6 14.2219C112.8 14.1219 112.9 13.9219 112.9 13.7219C112.8 13.5219 112.6 13.3219 112.4 13.4219C112.4 13.4219 111.9 13.5219 110.9 13.8219C110.7 13.8219 110.6 14.1219 110.6 14.3219C110.7 14.6219 110.9 14.7219 111.1 14.6219Z" fill="#FF8D00"/>
<path d="M54.4 40.1219C54.2 40.1219 54 40.0219 54 39.7219C54 39.5219 54.1 39.3219 54.4 39.3219C55.4 39.2219 56.4 39.1219 57.4 38.9219C57.6 38.9219 57.8 39.0219 57.8 39.2219C57.8 39.4219 57.7 39.6219 57.5 39.7219C56.4 39.9219 55.4 40.0219 54.4 40.1219ZM60 38.7219C59.9 38.5219 60.1 38.3218 60.3 38.2219C61.2 37.9219 62.2 37.6219 63.2 37.2219C63.4 37.1219 63.6 37.2219 63.7 37.4219C63.8 37.6219 63.7 37.8219 63.5 37.9219C62.5 38.3219 61.5 38.6219 60.6 38.9219C60.2 39.0219 60 38.9219 60 38.7219ZM65.7 36.5218C65.6 36.3218 65.7 36.1218 65.9 36.0218C66.8 35.5218 67.7 35.1218 68.6 34.5218C68.8 34.4218 69 34.4219 69.1 34.6219C69.2 34.8219 69.2 35.0219 69 35.1219C68.1 35.6219 67.2 36.1219 66.3 36.6219H66.2C65.9 36.7219 65.8 36.6218 65.7 36.5218ZM71 33.3219C70.9 33.1219 70.9 32.9219 71.1 32.8219C71.9 32.2219 72.7 31.6218 73.5 31.0218C73.7 30.9218 73.9 30.9219 74 31.1219C74.1 31.3219 74.1 31.5219 73.9 31.6219C73.1 32.3219 72.3 32.9218 71.4 33.5218C71.4 33.5218 71.3 33.6219 71.2 33.6219C71.2 33.5219 71.1 33.5219 71 33.3219ZM75.8 29.5218C75.7 29.3218 75.7 29.1218 75.8 29.0218C76 28.8218 76.3 28.6219 76.5 28.3219C77 27.8219 77.5 27.3219 77.9 26.9219C78 26.7219 78.3 26.7219 78.4 26.9219C78.6 27.0219 78.6 27.3219 78.4 27.4219C77.9 27.9219 77.4 28.4219 76.9 28.9219C76.7 29.1219 76.4 29.4219 76.2 29.6219C76.1 29.6219 76.1 29.7219 76 29.7219C76 29.7219 75.9 29.6218 75.8 29.5218ZM80 25.1219C79.8 25.0219 79.8 24.7219 79.9 24.6219C80.5 23.8219 81.1 23.0219 81.7 22.1219C81.8 21.9219 82.1 21.9218 82.2 22.0218C82.4 22.1218 82.4 22.4218 82.3 22.5218C81.8 23.3218 81.1 24.2218 80.5 25.0218C80.4 25.1218 80.4 25.1219 80.3 25.1219C80.2 25.2219 80.1 25.2219 80 25.1219ZM83.4 20.0218C83.2 19.9218 83.1 19.7218 83.2 19.5218C83.3 19.3218 83.4 19.0219 83.5 18.8219C82.5 18.8219 81.6 18.8219 80.7 18.8219C80.5 18.8219 80.3 18.6219 80.3 18.4219C80.3 18.2219 80.5 18.0218 80.7 18.0218C81.7 18.0218 82.7 18.0218 83.8 18.0218H83.9C84.1 17.6218 84.2 17.1219 84.4 16.7219C84.5 16.5219 84.7 16.4218 84.9 16.5218C85.1 16.6218 85.2 16.8218 85.1 17.0218C84.8 18.0218 84.4 18.9219 83.9 19.9219C83.8 20.0219 83.7 20.1219 83.6 20.1219C83.6 20.1219 83.5 20.1218 83.4 20.0218ZM102.1 16.5218C101.1 16.7218 100.1 16.9218 99.1 17.0218C98.9 17.0218 98.7 16.9219 98.7 16.7219C98.7 16.5219 98.8 16.3219 99 16.3219C100 16.1219 101 15.9219 102 15.8219C102.2 15.8219 102.4 15.9219 102.4 16.1219C102.5 16.3219 102.3 16.5218 102.1 16.5218ZM104.7 15.6219C104.7 15.4219 104.8 15.2219 105 15.1219C106.1 14.9219 107.1 14.7218 108 14.5218C108.2 14.5218 108.4 14.6219 108.5 14.8219C108.5 15.0219 108.4 15.2219 108.2 15.3219C107.3 15.5219 106.3 15.7219 105.2 15.9219C104.9 16.0219 104.7 15.8219 104.7 15.6219ZM96 17.5218C95 17.7218 94 17.8219 93 17.9219C92.8 17.9219 92.6 17.8219 92.6 17.6219C92.6 17.4219 92.7 17.2219 92.9 17.2219C93.9 17.1219 94.9 16.9219 95.9 16.8219C96.1 16.8219 96.3 16.9219 96.3 17.1219C96.4 17.3219 96.3 17.5218 96 17.5218C96.1 17.5218 96.1 17.5218 96 17.5218ZM89.9 18.3219C88.9 18.4219 87.8 18.5219 86.8 18.6219C86.6 18.6219 86.4 18.5219 86.4 18.2219C86.4 18.0219 86.5 17.8219 86.8 17.8219C87.8 17.7219 88.8 17.6218 89.8 17.5218C90 17.5218 90.2 17.6219 90.2 17.8219C90.3 18.1219 90.2 18.3219 89.9 18.3219C90 18.3219 90 18.3219 89.9 18.3219ZM77.6 18.7219C76.5 18.6219 75.5 18.5219 74.5 18.3219C74.3 18.3219 74.2 18.1219 74.2 17.8219C74.2 17.6219 74.4 17.5218 74.7 17.5218C75.6 17.7218 76.6 17.8219 77.7 17.9219C77.9 17.9219 78.1 18.1219 78.1 18.3219C78.1 18.5219 78 18.6219 77.8 18.6219C77.7 18.7219 77.7 18.7219 77.6 18.7219ZM71.5 17.4219C70.4 16.9219 69.5 16.4219 68.8 15.7219C68.7 15.5219 68.7 15.3219 68.8 15.2219C69 15.1219 69.2 15.1219 69.3 15.2219C69.9 15.8219 70.7 16.3219 71.7 16.7219C71.9 16.8219 72 17.0219 71.9 17.2219C71.8 17.3219 71.7 17.4219 71.6 17.4219C71.7 17.5219 71.6 17.5219 71.5 17.4219ZM85.4 14.2219C85.2 14.2219 85 14.0219 85.1 13.8219C85.3 12.8219 85.3 11.8219 85.3 10.8219C85.3 10.6219 85.5 10.4219 85.7 10.4219C85.9 10.4219 86.1 10.6219 86.1 10.8219C86.1 11.8219 86.1 12.9219 85.9 13.9219C85.9 14.1219 85.7 14.2219 85.6 14.2219C85.5 14.3219 85.4 14.3219 85.4 14.2219ZM67.9 13.1219C67.7 13.1219 67.5 13.0219 67.5 12.7219C67.4 11.8219 67.6 10.7218 68 9.52184C68.1 9.32184 68.3 9.22189 68.5 9.32189C68.7 9.42189 68.8 9.62189 68.7 9.82189C68.3 10.8219 68.2 11.8219 68.2 12.6219C68.3 12.9219 68.1 13.1219 67.9 13.1219ZM84.9 7.92186C84.6 6.92186 84.3 6.02185 83.8 5.22185C83.7 5.02185 83.8 4.82185 83.9 4.72185C84.1 4.62185 84.3 4.72189 84.4 4.82189C84.9 5.72189 85.3 6.72185 85.6 7.72185C85.7 7.92185 85.5 8.12185 85.3 8.22185C85.1 8.22185 84.9 8.12186 84.9 7.92186ZM69.5 7.32189C69.3 7.22189 69.3 7.02189 69.4 6.82189C69.5 6.62189 69.6 6.52189 69.7 6.32189C70.2 5.52189 70.7 4.82185 71.2 4.22185C71.3 4.02185 71.6 4.02185 71.7 4.22185C71.9 4.32185 71.9 4.62185 71.7 4.72185C71.2 5.32185 70.7 6.02185 70.2 6.72185C70.1 6.82185 70 7.02188 69.9 7.12188C69.8 7.22188 69.7 7.32189 69.6 7.32189C69.7 7.42189 69.6 7.42189 69.5 7.32189ZM82 2.92186C81.2 2.22186 80.4 1.82188 79.5 1.62188C79.3 1.52188 79.2 1.32188 79.2 1.12188C79.3 0.921876 79.5 0.821888 79.7 0.821888C80.7 1.12189 81.7 1.62189 82.5 2.32189C82.7 2.42189 82.7 2.72189 82.5 2.82189C82.4 2.92189 82.4 2.92186 82.3 2.92186C82.2 3.02186 82.1 2.92186 82 2.92186ZM73.4 2.62188C73.3 2.42188 73.3 2.22188 73.5 2.12188C74.4 1.42188 75.4 1.02189 76.4 0.821888C76.6 0.721888 76.8 0.921876 76.9 1.12188C76.9 1.32188 76.8 1.52188 76.6 1.62188C75.7 1.82188 74.8 2.22189 74 2.82189C74 2.82189 73.9 2.92186 73.8 2.92186C73.7 2.82186 73.5 2.82188 73.4 2.62188Z" fill="#FF8D00"/>
<path d="M51.2999 40.1219C51.4999 40.1219 51.6 39.9219 51.6 39.8219C51.6 39.6219 51.4999 39.4219 51.1999 39.4219C50.2999 39.3219 49.6999 39.2219 49.6999 39.2219C49.4999 39.1219 49.2999 39.3218 49.1999 39.5218C49.0999 39.7218 49.2999 39.9218 49.4999 40.0218C49.4999 40.0218 50.1 40.1219 51.1 40.2219C51.2 40.1219 51.1999 40.1219 51.2999 40.1219Z" fill="#FF8D00"/>
<path d="M114.5 24.1219L110.3 16.5219L110.2 16.4219L116.1 10.4219L108.8 14.7219L102.2 9.3219L122.6 5.12189L114.5 24.1219Z" fill="#FF8D00"/>
<path d="M110.3 16.5219L108.8 14.7219L121.2 6.22186L110.2 16.4219L110.3 16.5219Z" fill="#F47500"/>
<path d="M14.6 11.8219C13.3 12.3219 12.1 11.1219 10.8 11.0219C8.69997 11.0219 6.30002 12.1219 5.60002 14.2219C5.40002 14.8219 5.40002 15.7219 5.10002 16.2219C4.50002 17.0219 3.30002 17.5219 3.10002 18.6219C2.70002 21.1219 4.80002 21.8219 4.60002 24.3219C4.50002 26.0219 3.39999 26.5219 2.69999 28.0219C1.99999 29.5219 2.09997 31.0219 3.29997 32.1219C3.79997 32.6219 5.40002 33.3219 4.60002 34.1219C4.40002 34.3219 4.19998 34.4219 3.99998 34.6219C2.19998 35.7219 0.799991 37.6219 0.699991 39.7219C0.299991 45.1219 5.99998 47.2219 10.5 47.1219C14.1 47.1219 19.6 45.7219 22.3 43.3219C26.2 39.7219 28.7 34.0219 26.3 28.4219C25.7 27.0219 24.1 26.0219 24.1 24.5219C24.1 23.5219 24.4 22.5219 24.5 21.5219C24.6 20.4219 24.4 19.3219 24 18.3219C23.7 17.7219 23.4 17.2219 22.9 16.8219C22 16.0219 20.9 16.3219 19.9 15.8219C19.2 15.5219 18.7 14.9219 18.4 14.2219C18.1 13.5219 18.2 12.7219 17.7 12.0219C16.6 11.2219 15.4 11.4219 14.6 11.8219Z" fill="#192344"/>
<path d="M8.79997 57.4219C12.1 55.6219 33.5 52.8219 42.7 53.2219C46.6 53.4219 47.1 58.2219 43.9 60.0219C35.3 65.0219 23.7 67.0219 15.6 67.6219C8.40002 68.1219 5.29997 59.3219 8.79997 57.4219Z" fill="#00C675"/>
<path d="M45.0001 49.6219C45.2001 49.5219 45.4001 49.3219 45.5001 49.6219C45.6001 49.8219 44.8001 50.4219 44.6001 50.4219C44.1001 50.3219 44.1001 50.0218 43.6001 50.0218C44.1001 49.9218 44.6001 49.8219 45.0001 49.6219Z" fill="#FFA493"/>
<path d="M44.9 50.1219C45.5 50.2219 46.9 50.6219 47 50.7219C47.3 50.8219 48 51.0219 48.2 51.1219C48.3 51.2219 48.5 51.6219 48.5 51.7219C48.5 51.9219 48.2 52.0219 48.2 52.0219C48.3 52.3219 47.5 52.3219 47.5 52.4219C47.6 52.7219 47.3 53.0219 46.2 52.6219C46.1 52.6219 43.3 52.2219 42.5 52.1219C42.6 51.5219 43.3 49.9219 43.3 49.9219C43.8 50.0219 44.4 50.0219 44.9 50.1219Z" fill="#FFA493"/>
<path d="M28.5 43.9219C28.7 43.9219 28.9 43.9219 29 44.0219C31.6 44.8219 40.6 49.5219 43.5 50.0219C43.2 50.9219 43 51.6219 42.9 52.2219C38.3 51.4219 26.9 48.1219 26.7 46.3219C26.5 44.5219 27.7 44.0219 28.5 43.9219Z" fill="#FFA493"/>
<path d="M22.6001 30.3219C22.8001 30.3219 23.0001 30.4219 23.1001 30.5219C23.9001 31.5219 25 33.9219 26.2 36.4219C27.4 38.9219 28.6 41.5219 29.7 43.1219C29.9 43.4219 30 43.6219 30.2 43.9219C31.2 44.4219 32.6001 45.0219 34.1001 45.7219C37.3001 47.2219 41.3 49.1219 42.9 49.4219L42.1001 52.6219C38.1001 51.9219 29 49.2219 26.7 47.2219C24.2 45.2219 15.9 36.3219 17.5 34.0219C17.8 33.1219 21.7001 30.3219 22.6001 30.3219Z" fill="#3011CC"/>
<path d="M69.2 69.9219C68.7 69.6219 68.2 69.3219 68.2 69.3219L68.7 67.0219C68.7 67.0219 69.5999 67.1219 69.9999 67.1219C70.8999 67.0219 72.8 63.7219 73.7 64.2219C74.1 64.4219 73.8 65.7219 73.4 66.5219C73 67.3219 72.1999 68.7219 71.9999 69.2219C71.6999 69.8219 71.2999 70.9219 70.9999 71.0219C70.0999 71.3219 69.7 70.2219 69.2 69.9219Z" fill="#0B1028"/>
<path d="M68.6 67.0219C68.6 67.0219 69.2999 67.2219 69.9999 67.2219C69.9999 67.2219 70.3 67.1219 70.4 67.6219C70.4 68.0219 69.2 69.9219 69.2 69.9219C68.7 69.6219 67.7 69.1219 67.7 69.1219L68.6 67.0219Z" fill="#FF9873"/>
<path d="M9.30002 54.2219C13 53.7219 34.0001 58.9219 42.4001 62.6219C46.0001 64.2219 44.5001 68.0219 40.9001 68.6219C31.1001 70.1219 19.8 70.5219 11.7 69.5219C3.70004 68.6219 5.30002 54.8219 9.30002 54.2219Z" fill="#00E18E"/>
<path d="M41.4 61.8219C57.3 64.7219 69.1 66.8219 69.1 66.8219C69.5 67.6219 69.3 69.0218 68.9 70.0218C68.9 70.0218 52.6 70.3219 38.4 70.3219C29.1 70.3219 34.9 60.6219 41.4 61.8219Z" fill="#00E18E"/>
<path d="M26.4001 52.8219L28.3 57.5219C28.3 57.5219 27.8001 58.3219 25.9001 58.5219L24.8 57.0219L24.9001 59.1219C15.7001 63.9219 6.30005 61.9219 6.30005 61.9219C5.30005 58.8219 5.1001 53.7219 5.1001 53.7219L26.4001 52.8219Z" fill="white"/>
<path d="M13 22.4219C13.3 22.6219 15.3 23.7219 16.3 23.8219C16.3 24.0219 16.5 27.3219 17.3 27.8219C17.2 29.1219 13.7 29.5219 12.5 27.5219C12.9 26.8219 13 23.6219 13 22.4219Z" fill="#FF9873"/>
<path d="M9.09998 28.7219C9.99998 28.4219 12.4999 27.4219 12.4999 27.4219C12.4999 27.4219 14.3 28.8219 15.9 28.5219C16.7 28.3219 17.2999 27.7219 17.2999 27.7219C17.2999 27.7219 20.5 28.3219 21.1 28.5219C23.4 29.5219 24.0999 31.6219 23.9999 33.4219C23.6999 39.6219 28.4 53.1219 26.7 54.2219C24.4 55.6219 10.1 61.4219 5.09998 58.2219C5.09998 58.2219 4.19996 40.6219 5.19996 34.5219C5.49996 32.2219 6.49998 29.6219 9.09998 28.7219Z" fill="#4619D9"/>
<path d="M12.4 21.9219C12 20.3219 12.4 18.3219 14 17.6219C15.5 17.0219 16.9 17.2218 17.7 18.5218C18 19.0218 19.3 24.3218 17.2 25.2218C16.1 25.6218 13.2 24.6219 12.9 23.4219C12.8 23.5219 12.6 22.4219 12.4 21.9219Z" fill="#FF9873"/>
<path d="M68.0001 72.2219C67.6001 71.8219 67.3 71.3219 67.3 71.3219L68.6001 69.3219C68.6001 69.3219 69.4 69.7219 69.8 69.9219C70.7 70.2219 73.6 67.7219 74.3 68.4219C74.6 68.8219 73.9001 69.9219 73.2001 70.5219C72.6001 71.1219 71.3001 72.2219 70.9001 72.5219C70.4001 72.9219 69.7 73.9219 69.3 73.8219C68.4 73.8219 68.4001 72.6219 68.0001 72.2219Z" fill="#0B1028"/>
<path d="M68.5001 69.2219C68.5001 69.2219 69.1001 69.7219 69.7001 69.9219C69.7001 69.9219 70.0001 69.9219 69.9001 70.4219C69.8001 70.8219 67.9001 72.2219 67.9001 72.2219C67.5001 71.8219 66.8 71.0219 66.8 71.0219L68.5001 69.2219Z" fill="#FF9873"/>
<path d="M45.1 54.0219C58.7 62.7219 68.9 69.1219 68.9 69.1219C68.9 70.0219 68.1 71.3219 67.1 71.9219C67.1 71.9219 55.8 67.7219 42.6 62.3219C34 58.8219 39.6 50.5219 45.1 54.0219Z" fill="#00C675"/>
<path d="M17 54.4219C17 54.5219 17 54.5219 17 54.4219C17 54.8219 17.3 55.1219 17.7 55.1219H34.6C35 55.1219 35.3 54.8219 35.3 54.4219H17Z" fill="#8358FF"/>
<path d="M37.1999 39.6219L33.6999 54.3219C33.5999 54.5219 33.7 55.2219 34.6 55.2219L48.8999 55.0219V38.6219H38.4999C37.8999 38.6219 37.2999 39.0219 37.1999 39.6219Z" fill="#8358FF"/>
<path d="M56.6 38.6219H38.2999C38.0999 38.6219 37.9 38.7219 37.9 38.9219L34.1 54.6219C34 54.9219 34.2 55.1219 34.5 55.1219H51.5C52.4 55.1219 53.3 54.5219 53.5 53.6219L56.9 39.1219C57.1 38.9219 56.9 38.6219 56.6 38.6219Z" fill="#9872FF"/>
<path opacity="0.2" d="M39.9 54.3219H35.2L36.2 50.0219L39.9 54.3219Z" fill="white"/>
<path opacity="0.2" d="M37.6001 43.4219L38.5001 39.2219H39.8C44.2 44.2219 48.5001 49.2219 52.9001 54.3219H47.0001L37.6001 43.4219Z" fill="white"/>
<path d="M8.69995 34.5219C8.89995 34.1219 8.99993 33.8219 8.99993 33.4219C10.6999 36.2219 13.2999 38.2219 15.4999 40.9219C18.4999 44.5219 21.9999 50.0219 26.1999 52.2219C22.0999 52.2219 18 51.5219 15.9 50.2219C12.9 48.2219 5.39995 39.2219 8.69995 34.5219Z" fill="#3011CC"/>
<path d="M34.9 51.1219C35 51.3219 34.1999 51.8219 33.9999 51.8219C33.4999 51.7219 33.6 51.4219 33.1 51.3219C33.5 51.3219 34 51.1218 34.4 51.0218C34.6 51.0218 34.8 50.8219 34.9 51.1219Z" fill="#FF9873"/>
<path d="M32.6 51.4219C33.1 51.4219 33.6 51.5219 34.1 51.6219C34.7 51.7219 36.1 52.2219 36.1 52.2219C36.4 52.3219 37.1 52.5219 37.2 52.6219C37.3 52.7219 37.5 53.1219 37.5 53.2219C37.5 53.4219 37.2 53.5219 37.2 53.5219C37.3 53.8219 36.5 53.8219 36.5 53.9219C36.6 54.2219 36.3 54.4219 35.2 54.1219C35.1 54.1219 32.4 53.7219 31.5 53.5219C31.9 52.9219 32.6 51.4219 32.6 51.4219Z" fill="#FF9873"/>
<path d="M7.80001 35.3219C8.30001 34.6219 12.5 31.6218 12.8 32.0218C14.3 34.0218 17.2 41.4219 19.3 44.7219C21.8 48.7219 18.1 49.1219 17 48.1219C13.9 45.5219 6.70001 37.0219 7.80001 35.3219Z" fill="#FF9873"/>
<path d="M18.1999 45.1219C18.3999 45.1219 18.5999 45.1219 18.6999 45.2219C21.1999 46.1219 29.9999 50.9219 32.7999 51.4219C32.4999 52.2219 32.1999 53.0219 32.1999 53.6219C27.6999 52.7219 16.5999 49.2219 16.3999 47.3219C16.1999 45.6219 17.3999 45.1219 18.1999 45.1219Z" fill="#FF9873"/>
<path d="M7.19997 34.9219C7.69997 34.1219 11.6 31.4219 12.5 31.5219C12.7 31.5219 12.9 31.6219 13 31.8219C13.7 32.8219 18.2 42.7219 19.1 44.3219C19.3 44.6219 19.4 44.8219 19.5 45.1219C20.5 45.6219 21.8999 46.3219 23.2999 47.0219C26.3999 48.6219 30.2999 50.5219 31.7999 50.8219L30.9 54.0219C27 53.2219 18.0999 50.3219 15.7999 48.3219C13.4999 46.1219 5.59997 37.2219 7.19997 34.9219Z" fill="#4619D9"/>
</svg>
